<svg version="1" xmlns="http://www.w3.org/2000/svg" width="1037.333" height="1037.333" viewBox="0 0 778.000000 778.000000"><path d="M400 62.6c-44.3 11.6-79.7 25.7-116.5 46.6-41.2 23.4-74.4 48.2-108.6 81.6-20.8 20.2-34.9 37.1-47.6 56.9-3.2 5-3.4 5.2-9 5.8-29.4 3.5-56.1 16-77.4 36.3C20.4 309.3 7.7 332.3 2 360c-2.5 12.3-2.7 35.3-.5 48.3 5.3 30 22.8 59.9 46.2 78.7 13.3 10.7 26.4 18.1 40.6 23l7.9 2.7 4.3 10.9c14.4 36.9 36.3 70.7 64.5 99.8 48.9 50.5 107.8 80.8 179 92.1 13.9 2.3 59.8 3.2 75.2 1.6 88-9.2 165.7-53.4 218.6-124.1 15.2-20.3 30.9-49 39.5-71.8l4.2-11.3 7.5-2.5c44.3-14.9 79.4-55.8 87.5-102.1 2-11.7 2-35.5-.1-46.4-10.6-55.8-54.4-98.3-110.9-107.4-4.9-.8-10.3-1.5-12-1.6-2.6 0-3.6-1-7.8-7.5-19.9-30.7-54.6-65-87.1-86.2-45.9-29.9-99.6-47.6-151.8-49.9-15.9-.7-14.9.4-12.3-12.7 1.8-9.7 5.7-18.4 11.7-26.4l4.7-6.2-2.7.1c-1.5 0-5.2.7-8.2 1.5zm106.7 192.5c54.9 7.3 99.5 48 111.7 101.9 7 30.6 1.9 64.2-13.8 92.4-9.2 16.4-25.9 34.4-41.9 45l-8.4 5.6-.6 19.8c-.4 13.9-1.1 22.5-2.6 29.4-10.2 49.5-42 91.2-87.1 114.2-27.4 14-59.8 20.5-88.6 17.7-7.1-.7-17.2-2.1-22.4-3.3-58.6-12.5-107.1-57.1-123.6-113.8-4.4-15.1-5.6-23.1-6.3-42.6l-.6-19.1-10.8-7.3c-29.5-19.7-49.2-49.6-56.4-85.4-2.5-12.3-2.2-36.2.6-49.3 11-52 50.6-91.5 103.2-102.9 10.3-2.2 31.6-2.9 43.3-1.5 29.6 3.8 56.2 16.8 77.4 37.8l7.3 7.3 6.1-6.6c18.3-19.6 47-34.5 74.8-38.9 10.5-1.6 28.3-1.8 38.7-.4z"/><path d="M468.7 303.1c-29 7.1-52.4 29.3-61.7 58.4-3.1 9.9-3.9 29-1.6 40.6 6.3 31.2 30.5 56.6 62.1 65.1 11.3 3 31.7 3 43 0 28.2-7.6 50-28.2 59.7-56.2 3.1-9.1 3.2-10.1 3.3-25 0-17.5-1.2-23.4-7.1-35.9-11.4-24.3-33.9-42.2-59.6-47.5-10.7-2.2-28.1-2-38.1.5zm61.9 30.8c14.5 6.6 15.7 27.7 2.1 35.5-5.4 3.1-10.7 4-15.5 2.6-15-4-20.8-21.4-10.9-32.7 6.1-7 16-9.2 24.3-5.4zM265.6 304.1c-16.2 4-35 15.4-44.7 27.1-13.7 16.5-20.2 34.5-20.1 55.8.3 59.1 60.4 99.5 116.2 78 24.6-9.5 43.7-30.7 51.2-56.7 2-6.6 2.3-10.1 2.2-22.8 0-14.1-.2-15.6-3.2-24.5-9.5-28.6-32-49.6-61.1-56.9-11.3-2.8-29.1-2.8-40.5 0zm59.6 31.5c18.4 12.7 5.1 41.8-16.6 36.3-18-4.5-21-28.9-4.6-37.7 6.4-3.4 15.2-2.8 21.2 1.4z"/></svg>