<?xml version="1.0" encoding="UTF-8" standalone="no"?>
<!-- Created with Inkscape (http://www.inkscape.org/) -->

<svg
   xmlns:dc="http://purl.org/dc/elements/1.1/"
   xmlns:cc="http://creativecommons.org/ns#"
   xmlns:rdf="http://www.w3.org/1999/02/22-rdf-syntax-ns#"
   xmlns:svg="http://www.w3.org/2000/svg"
   xmlns="http://www.w3.org/2000/svg"
   xmlns:sodipodi="http://sodipodi.sourceforge.net/DTD/sodipodi-0.dtd"
   xmlns:inkscape="http://www.inkscape.org/namespaces/inkscape"
   version="1.1"
   id="svg171"
   xml:space="preserve"
   width="560.43854"
   height="485.672"
   viewBox="0 0 560.43856 485.67201"
   sodipodi:docname="BEN_DB.svg"
   inkscape:version="0.92.1 r"><metadata
     id="metadata177"><rdf:RDF><cc:Work
         rdf:about=""><dc:format>image/svg+xml</dc:format><dc:type
           rdf:resource="http://purl.org/dc/dcmitype/StillImage" /><dc:title></dc:title></cc:Work></rdf:RDF></metadata><defs
     id="defs175"><clipPath
       clipPathUnits="userSpaceOnUse"
       id="clipPath187"><path
         d="M 290,318 H 710.329 V 682.254 H 290 Z"
         id="path185"
         inkscape:connector-curvature="0" /></clipPath></defs><sodipodi:namedview
     pagecolor="#ffffff"
     bordercolor="#666666"
     borderopacity="1"
     objecttolerance="10"
     gridtolerance="10"
     guidetolerance="10"
     inkscape:pageopacity="0"
     inkscape:pageshadow="2"
     inkscape:window-width="640"
     inkscape:window-height="480"
     id="namedview173"
     showgrid="false"
     inkscape:zoom="0.17700001"
     inkscape:cx="279.99984"
     inkscape:cy="242.66668"
     inkscape:window-x="167"
     inkscape:window-y="44"
     inkscape:window-maximized="0"
     inkscape:current-layer="g179" /><g
     id="g179"
     inkscape:groupmode="layer"
     inkscape:label="BEN_DB"
     transform="matrix(1.3333333,0,0,-1.3333333,-386.66679,909.67198)"><g
       id="g181"><g
         id="g183"
         clip-path="url(#clipPath187)"><g
           id="g189"
           transform="translate(641.4041,572.7616)"><path
             d="m 0,0 c -29.062,46.632 -80.514,77.857 -139.321,78.639 -0.006,7.03 1.844,16.224 9.785,24.584 -72.319,-14.805 -123.228,-67.056 -123.228,-67.056 -12.251,-10.974 -22.875,-23.727 -31.451,-37.863 -37.514,-2.447 -67.189,-33.631 -67.189,-71.764 0,-32.907 22.104,-60.633 52.269,-69.192 22.613,-65.254 84.608,-112.11 157.555,-112.11 73.527,0 135.933,47.602 158.092,113.667 30.238,8.512 52.413,36.274 52.413,69.234 C 68.925,-33.142 38.331,-1.581 0,0 m -52.119,-136.244 c 0.304,-3.01 0.461,-6.063 0.461,-9.153 0,-49.663 -40.259,-89.922 -89.922,-89.922 -49.663,0 -89.922,40.259 -89.922,89.922 0,2.72 0.128,5.41 0.364,8.068 -22.503,12.158 -37.793,35.957 -37.793,63.33 0,39.73 32.207,71.937 71.937,71.937 21.876,0 41.456,-9.777 54.65,-25.184 13.196,15.721 32.985,25.724 55.117,25.724 39.729,0 71.937,-32.208 71.937,-71.938 0,-26.977 -14.858,-50.472 -36.829,-62.784"
             style="fill:#0038ff;fill-opacity:1;fill-rule:nonzero;stroke:none"
             id="path191"
             inkscape:connector-curvature="0" /></g><g
           id="g193"
           transform="translate(555.9783,404.4602)"><path
             d="m 0,0 c -4.407,0.994 -8.79,-1.772 -9.786,-6.183 -3.176,-14.077 -17.219,-22.944 -31.295,-19.77 -4.411,0.994 -8.791,-1.774 -9.786,-6.183 -0.995,-4.409 1.773,-8.79 6.182,-9.786 3.142,-0.709 6.278,-1.048 9.371,-1.048 19.442,0 37.041,13.442 41.497,33.184 C 7.178,-5.376 4.409,-0.995 0,0"
             style="fill:#0038ff;fill-opacity:1;fill-rule:nonzero;stroke:none"
             id="path195"
             inkscape:connector-curvature="0" /></g><g
           id="g197"
           transform="translate(444.4104,544.5758)"><path
             d="m 0,0 c -25.302,0 -45.813,-20.511 -45.813,-45.813 0,-25.303 20.511,-45.814 45.813,-45.814 25.302,0 45.814,20.511 45.814,45.814 C 45.814,-20.511 25.302,0 0,0 m 15.018,-38.743 c -6.326,0 -11.454,5.128 -11.454,11.453 0,6.326 5.128,11.454 11.454,11.454 6.325,0 11.453,-5.128 11.453,-11.454 0,-6.325 -5.128,-11.453 -11.453,-11.453"
             style="fill:#0038ff;fill-opacity:1;fill-rule:nonzero;stroke:none"
             id="path199"
             inkscape:connector-curvature="0" /></g><g
           id="g201"
           transform="translate(554.1766,545.1153)"><path
             d="m 0,0 c -25.302,0 -45.814,-20.511 -45.814,-45.814 0,-25.302 20.512,-45.813 45.814,-45.813 25.302,0 45.813,20.511 45.813,45.813 C 45.813,-20.511 25.302,0 0,0 m 17.781,-39.283 c -6.325,0 -11.453,5.128 -11.453,11.454 0,6.325 5.128,11.453 11.453,11.453 6.326,0 11.454,-5.128 11.454,-11.453 0,-6.326 -5.128,-11.454 -11.454,-11.454"
             style="fill:#0038ff;fill-opacity:1;fill-rule:nonzero;stroke:none"
             id="path203"
             inkscape:connector-curvature="0" /></g><g
           id="g205"
           transform="translate(560.7156,659.8138)"><path
             d="m 0,0 7.931,-2.962 c 1.995,-0.746 3.901,-0.89 5.718,-0.431 1.818,0.459 3.198,1.952 4.142,4.478 0.539,1.444 0.622,2.755 0.253,3.935 -0.37,1.178 -1.034,2.2 -1.993,3.067 1.007,0.107 1.876,0.442 2.607,1.004 0.729,0.562 1.274,1.321 1.63,2.277 1.412,3.778 0.1,6.423 -3.934,7.929 L 8.328,22.295 C 7.775,22.501 7.243,22.488 6.734,22.255 6.224,22.023 5.865,21.63 5.658,21.078 L -1.217,2.668 C -1.423,2.116 -1.41,1.585 -1.178,1.075 -0.944,0.564 -0.553,0.207 0,0 m 9.121,17.716 5.256,-1.963 c 0.785,-0.293 1.314,-0.739 1.587,-1.337 0.272,-0.598 0.247,-1.332 -0.079,-2.203 -0.269,-0.722 -0.722,-1.206 -1.359,-1.452 -0.635,-0.246 -1.273,-0.25 -1.91,-0.012 L 7.267,12.748 Z M 5.861,8.989 11.372,6.931 C 12.328,6.574 13.063,6.082 13.579,5.453 14.094,4.826 14.118,3.885 13.65,2.632 13.269,1.613 12.698,0.943 11.936,0.622 11.176,0.301 10.297,0.328 9.299,0.701 L 3.566,2.842 Z"
             style="fill:#0038ff;fill-opacity:1;fill-rule:nonzero;stroke:none"
             id="path207"
             inkscape:connector-curvature="0" /></g><g
           id="g209"
           transform="translate(586.8484,648.6879)"><path
             d="m 0,0 c 0.505,-0.258 1.038,-0.31 1.603,-0.153 0.563,0.155 0.98,0.495 1.25,1.02 l 8.976,17.482 c 0.269,0.524 0.313,1.056 0.132,1.595 -0.183,0.539 -0.525,0.939 -1.03,1.197 -0.565,0.291 -1.118,0.352 -1.662,0.186 C 8.724,21.16 8.318,20.814 8.048,20.29 L -0.928,2.808 C -1.197,2.284 -1.246,1.754 -1.074,1.221 -0.903,0.686 -0.545,0.28 0,0"
             style="fill:#0038ff;fill-opacity:1;fill-rule:nonzero;stroke:none"
             id="path211"
             inkscape:connector-curvature="0" /></g><g
           id="g213"
           transform="translate(605.3318,637.8295)"><path
             d="m 0,0 c 0.528,-0.352 1.081,-0.483 1.659,-0.392 0.578,0.091 1.031,0.382 1.36,0.872 l 9.883,14.822 4.443,-2.961 c 0.508,-0.341 1.019,-0.47 1.536,-0.392 0.515,0.078 0.936,0.362 1.264,0.853 0.326,0.49 0.43,0.993 0.311,1.509 -0.12,0.515 -0.434,0.943 -0.941,1.283 L 6.955,23.969 C 6.464,24.297 5.952,24.418 5.422,24.337 4.891,24.256 4.467,23.979 4.152,23.508 3.827,23.017 3.723,22.515 3.842,21.999 3.961,21.484 4.274,21.056 4.785,20.717 L 9.227,17.754 -0.658,2.933 C -0.986,2.442 -1.091,1.918 -0.971,1.363 -0.852,0.806 -0.527,0.352 0,0"
             style="fill:#0038ff;fill-opacity:1;fill-rule:nonzero;stroke:none"
             id="path215"
             inkscape:connector-curvature="0" /></g><g
           id="g217"
           transform="translate(624.074,631.0223)"><path
             d="m 0,0 c -0.552,-0.039 -1.001,-0.252 -1.349,-0.641 -0.437,-0.49 -0.609,-1.142 -0.515,-1.956 0.177,-1.466 0.602,-2.775 1.278,-3.925 0.675,-1.15 1.62,-2.269 2.836,-3.357 1.149,-1.028 2.415,-1.772 3.798,-2.232 1.381,-0.46 2.731,-0.558 4.049,-0.292 1.317,0.267 2.452,0.932 3.404,1.997 1.012,1.131 1.604,2.237 1.777,3.314 0.172,1.077 10e-4,2.203 -0.513,3.378 -0.516,1.175 -1.387,2.539 -2.614,4.092 -1.072,1.385 -1.743,2.532 -2.01,3.439 -0.267,0.908 -0.076,1.725 0.574,2.453 0.574,0.641 1.329,0.9 2.268,0.776 0.937,-0.125 1.94,-0.662 3.003,-1.614 0.625,-0.559 1.199,-1.338 1.72,-2.335 0.522,-0.999 0.844,-1.871 0.965,-2.619 0.067,-0.334 0.227,-0.614 0.48,-0.84 0.389,-0.348 0.859,-0.503 1.411,-0.464 0.551,0.039 1.001,0.253 1.349,0.641 0.453,0.508 0.608,1.174 0.466,2.001 -0.158,1.083 -0.561,2.204 -1.211,3.364 -0.651,1.159 -1.508,2.215 -2.574,3.167 -1.183,1.057 -2.44,1.81 -3.773,2.257 -1.334,0.447 -2.631,0.527 -3.89,0.24 C 9.669,10.557 8.561,9.881 7.61,8.817 5.012,5.911 5.32,2.532 8.537,-1.317 c 1.274,-1.534 2.056,-2.818 2.348,-3.854 0.29,-1.035 0.095,-1.933 -0.584,-2.693 -0.56,-0.625 -1.37,-0.844 -2.432,-0.654 -1.062,0.19 -2.067,0.707 -3.012,1.554 -0.879,0.785 -1.526,1.592 -1.941,2.42 -0.417,0.827 -0.713,1.822 -0.891,2.983 -0.072,0.43 -0.268,0.788 -0.589,1.075 C 1.031,-0.123 0.552,0.039 0,0"
             style="fill:#0038ff;fill-opacity:1;fill-rule:nonzero;stroke:none"
             id="path219"
             inkscape:connector-curvature="0" /></g></g></g></g></svg>
