<?xml version="1.0" encoding="UTF-8" standalone="no"?>
<!-- Created with Inkscape (http://www.inkscape.org/) -->

<svg
   xmlns:dc="http://purl.org/dc/elements/1.1/"
   xmlns:cc="http://creativecommons.org/ns#"
   xmlns:rdf="http://www.w3.org/1999/02/22-rdf-syntax-ns#"
   xmlns:svg="http://www.w3.org/2000/svg"
   xmlns="http://www.w3.org/2000/svg"
   xmlns:sodipodi="http://sodipodi.sourceforge.net/DTD/sodipodi-0.dtd"
   xmlns:inkscape="http://www.inkscape.org/namespaces/inkscape"
   version="1.1"
   id="svg97"
   xml:space="preserve"
   width="687.11841"
   height="198.608"
   viewBox="0 0 687.11843 198.60801"
   sodipodi:docname="BITS_WH.svg"
   inkscape:version="0.92.1 r"><metadata
     id="metadata103"><rdf:RDF><cc:Work
         rdf:about=""><dc:format>image/svg+xml</dc:format><dc:type
           rdf:resource="http://purl.org/dc/dcmitype/StillImage" /><dc:title></dc:title></cc:Work></rdf:RDF></metadata><defs
     id="defs101"><clipPath
       clipPathUnits="userSpaceOnUse"
       id="clipPath113"><path
         d="M 243.08,425.839 H 758.42 V 574.795 H 243.08 Z"
         id="path111"
         inkscape:connector-curvature="0" /></clipPath></defs><sodipodi:namedview
     pagecolor="#ffffff"
     bordercolor="#666666"
     borderopacity="1"
     objecttolerance="10"
     gridtolerance="10"
     guidetolerance="10"
     inkscape:pageopacity="0"
     inkscape:pageshadow="2"
     inkscape:window-width="640"
     inkscape:window-height="480"
     id="namedview99"
     showgrid="false"
     inkscape:zoom="0.17700001"
     inkscape:cx="342.55837"
     inkscape:cy="98.881355"
     inkscape:window-x="364"
     inkscape:window-y="130"
     inkscape:window-maximized="0"
     inkscape:current-layer="g105" /><g
     id="g105"
     inkscape:groupmode="layer"
     inkscape:label="BITS_WH"
     transform="matrix(1.3333333,0,0,-1.3333333,-324.10826,766.39331)"><g
       id="g107"><g
         id="g109"
         clip-path="url(#clipPath113)"><g
           id="g115"
           transform="translate(344.7622,494.0068)"><path
             d="m 0,0 c 4.895,-5.999 7.344,-13.829 7.344,-23.482 0,-15.31 -4.448,-26.242 -13.343,-32.79 -8.895,-6.551 -19.758,-9.828 -32.583,-9.828 h -53.17 c -2.76,0 -5.104,0.964 -7.033,2.897 -1.935,1.932 -2.896,4.276 -2.896,7.036 V 68.79 c 0,2.757 0.961,5.098 2.896,7.033 1.929,1.929 4.273,2.897 7.033,2.897 h 53.17 c 12.546,0 22.098,-3.103 28.653,-9.311 6.547,-6.206 9.824,-15.174 9.824,-26.896 0,-6.617 -1.586,-12.515 -4.755,-17.686 -3.176,-5.174 -7.795,-9.14 -13.863,-11.896 C -11.138,10.31 -4.898,5.999 0,0 m -26.689,54.203 c -3.515,3.379 -8.449,5.07 -14.79,5.07 H -80.578 V 18.93 h 39.511 c 5.653,0.136 10.346,1.967 14.07,5.481 3.725,3.519 5.583,8.515 5.583,14.999 0,6.482 -1.757,11.411 -5.275,14.793 m 6.103,-95.374 c 4.553,3.934 6.827,9.828 6.827,17.689 0,15.31 -8.689,22.965 -26.067,22.965 h -40.752 v -46.548 h 41.786 c 7.585,0 13.654,1.963 18.206,5.894"
             style="fill:#ffffff;fill-opacity:1;fill-rule:nonzero;stroke:none"
             id="path117"
             inkscape:connector-curvature="0" /></g><g
           id="g119"
           transform="translate(436.9278,430.8047)"><path
             d="m 0,0 c -2.068,-1.932 -4.483,-2.896 -7.239,-2.896 -3.036,0 -5.486,0.964 -7.344,2.896 -1.862,1.929 -2.795,4.343 -2.795,7.239 V 131.99 c 0,2.757 0.964,5.101 2.896,7.033 1.929,1.932 4.413,2.897 7.449,2.897 2.757,0 5.136,-0.965 7.138,-2.897 1.998,-1.932 2.998,-4.276 2.998,-7.033 V 7.239 C 3.103,4.343 2.068,1.929 0,0"
             style="fill:#ffffff;fill-opacity:1;fill-rule:nonzero;stroke:none"
             id="path121"
             inkscape:connector-curvature="0" /></g><g
           id="g123"
           transform="translate(616.8117,570.1395)"><path
             d="m 0,0 c 1.862,-1.726 2.792,-4.035 2.792,-6.928 0,-2.9 -0.93,-5.175 -2.792,-6.831 -1.862,-1.652 -4.242,-2.48 -7.138,-2.48 h -36.825 v -116.062 c 0,-2.76 -1.003,-5.105 -2.998,-7.033 -2.002,-1.932 -4.521,-2.896 -7.553,-2.896 -3.036,0 -5.552,0.964 -7.551,2.896 -2.001,1.928 -3.001,4.273 -3.001,7.033 v 116.062 h -36.615 c -2.896,0 -5.276,0.859 -7.138,2.585 -1.862,1.723 -2.795,4.035 -2.795,6.932 0,2.756 0.933,4.996 2.795,6.722 1.862,1.722 4.242,2.585 7.138,2.585 H -7.138 C -4.242,2.585 -1.862,1.722 0,0"
             style="fill:#ffffff;fill-opacity:1;fill-rule:nonzero;stroke:none"
             id="path125"
             inkscape:connector-curvature="0" /></g><g
           id="g127"
           transform="translate(681.2527,430.0808)"><path
             d="m 0,0 c -7.725,2.827 -15.104,7.41 -22.137,13.759 -2.896,2.48 -4.343,5.307 -4.343,8.479 0,2.484 0.964,4.724 2.897,6.726 1.928,1.998 4.206,2.998 6.827,2.998 2.344,0 4.342,-0.759 5.998,-2.275 5.514,-5.104 11.205,-8.864 17.068,-11.274 5.859,-2.415 12.518,-3.62 19.964,-3.62 8.689,0 16.033,1.998 22.032,5.999 6.002,3.997 9,9.031 9,15.1 -0.14,7.173 -3.138,12.725 -9,16.655 -5.863,3.931 -14.79,7.205 -26.791,9.828 -14.206,2.897 -25.135,7.655 -32.79,14.273 -7.655,6.621 -11.48,15.792 -11.48,27.517 0,8.137 2.134,15.272 6.411,21.414 4.273,6.132 10.205,10.859 17.794,14.171 7.582,3.309 16.134,4.965 25.652,4.965 8.549,0 16.62,-1.38 24.205,-4.141 7.582,-2.76 13.724,-6.411 18.412,-10.963 3.173,-2.76 4.759,-5.723 4.759,-8.896 0,-2.48 -0.933,-4.688 -2.792,-6.62 -1.862,-1.932 -4.108,-2.897 -6.725,-2.897 -1.932,0 -3.515,0.549 -4.759,1.656 -3.588,3.585 -8.553,6.621 -14.894,9.102 -6.345,2.484 -12.414,3.724 -18.206,3.724 -9.242,0 -16.586,-1.897 -22.032,-5.688 -5.451,-3.794 -8.173,-8.794 -8.173,-14.999 0,-6.76 2.722,-11.931 8.173,-15.516 5.446,-3.588 13.549,-6.621 24.306,-9.105 10.761,-2.344 19.552,-5.104 26.379,-8.273 6.827,-3.176 12.102,-7.589 15.827,-13.242 3.724,-5.656 5.586,-13.032 5.586,-22.137 0,-7.997 -2.243,-15.1 -6.725,-21.309 C 65.96,9.206 59.856,4.378 52.135,0.929 44.41,-2.516 35.927,-4.242 26.689,-4.242 16.62,-4.242 7.721,-2.827 0,0"
             style="fill:#ffffff;fill-opacity:1;fill-rule:nonzero;stroke:none"
             id="path129"
             inkscape:connector-curvature="0" /></g></g></g></g></svg>