<?xml version="1.0" encoding="UTF-8" standalone="no"?>
<!-- Created with Inkscape (http://www.inkscape.org/) -->

<svg
   xmlns:dc="http://purl.org/dc/elements/1.1/"
   xmlns:cc="http://creativecommons.org/ns#"
   xmlns:rdf="http://www.w3.org/1999/02/22-rdf-syntax-ns#"
   xmlns:svg="http://www.w3.org/2000/svg"
   xmlns="http://www.w3.org/2000/svg"
   xmlns:sodipodi="http://sodipodi.sourceforge.net/DTD/sodipodi-0.dtd"
   xmlns:inkscape="http://www.inkscape.org/namespaces/inkscape"
   id="svg2"
   version="1.1"
   inkscape:version="0.91 r13725"
   xml:space="preserve"
   width="203.7215"
   height="173.50537"
   viewBox="0 0 203.7215 173.50537"
   sodipodi:docname="faces_DB5.svg"><metadata
     id="metadata8"><rdf:RDF><cc:Work
         rdf:about=""><dc:format>image/svg+xml</dc:format><dc:type
           rdf:resource="http://purl.org/dc/dcmitype/StillImage" /><dc:title></dc:title></cc:Work></rdf:RDF></metadata><defs
     id="defs6"><clipPath
       clipPathUnits="userSpaceOnUse"
       id="clipPath18"><path
         d="m 18,700.5 0,-559 559,0 0,559 -559,0 z"
         id="path20"
         inkscape:connector-curvature="0" /></clipPath><clipPath
       clipPathUnits="userSpaceOnUse"
       id="clipPath24"><path
         d="m 217.8134,492.3983 0,-162.9776 138.8048,0 0,162.9776 -138.8048,0 z"
         id="path26"
         inkscape:connector-curvature="0" /></clipPath><clipPath
       clipPathUnits="userSpaceOnUse"
       id="clipPath30"><path
         d="m 18,41 559,0 0,760 -559,0 0,-760 z"
         id="path32"
         inkscape:connector-curvature="0" /></clipPath></defs><sodipodi:namedview
     pagecolor="#ffffff"
     bordercolor="#666666"
     borderopacity="1"
     objecttolerance="10"
     gridtolerance="10"
     guidetolerance="10"
     inkscape:pageopacity="0"
     inkscape:pageshadow="2"
     inkscape:window-width="1114"
     inkscape:window-height="787"
     id="namedview4"
     showgrid="false"
     inkscape:zoom="1.8101934"
     inkscape:cx="135.22762"
     inkscape:cy="32.965015"
     inkscape:window-x="155"
     inkscape:window-y="24"
     inkscape:window-maximized="0"
     inkscape:current-layer="g10"
     inkscape:snap-page="false"
     fit-margin-top="0"
     fit-margin-left="0"
     fit-margin-right="0"
     fit-margin-bottom="0" /><g
     id="g10"
     inkscape:groupmode="layer"
     inkscape:label="faces_DB5"
     transform="matrix(1.25,0,0,-1.25,-257.15931,600.38881)"><g
       id="g12"
       transform="matrix(0,1,-1,0,0,0)" /><g
       id="g14"
       transform="matrix(0,1,-1,0,698.12535,123.69285)"><g
         id="g16"
         clip-path="url(#clipPath18)"><g
           id="g22"
           clip-path="url(#clipPath24)"><g
             id="g28"
             clip-path="url(#clipPath30)"><path
               d="m 236.7585,409.8119 c -0.3907,-1.7329 0.6971,-3.4569 2.4311,-3.8482 5.5363,-1.2493 9.0228,-6.7717 7.7751,-12.3069 -0.3913,-1.7346 0.6971,-3.4569 2.4311,-3.8482 1.734,-0.3913 3.4569,0.6971 3.8482,2.4311 0.2789,1.2354 0.4125,2.4686 0.4125,3.685 0,7.6454 -5.2859,14.5664 -13.0498,16.3183 -1.7341,0.3913 -3.4569,-0.6971 -3.8482,-2.4311"
               style="fill:#0038ff;fill-opacity:1;fill-rule:nonzero;stroke:none"
               id="path34"
               inkscape:connector-curvature="0" /><path
               d="m 316.5948,356.145 c 18.0814,11.2683 30.1882,31.2185 30.4912,54.0201 2.7262,0.002 6.291,-0.715 9.5326,-3.794 -5.7404,28.0412 -26.0008,47.78 -26.0008,47.78 -4.2545,4.7504 -9.1994,8.8702 -14.6804,12.1951 -0.9492,14.5458 -13.0404,26.0517 -27.8259,26.0517 -12.7598,0 -23.5099,-8.5706 -26.8287,-20.2666 -25.3009,-8.7679 -43.4689,-32.806 -43.4689,-61.0903 0,-28.5095 18.457,-52.7064 44.0727,-61.2982 3.3003,-11.7251 14.065,-20.3225 26.8448,-20.3225 15.0131,0 27.2507,11.862 27.8634,26.7247 m -52.8272,20.2084 c -1.1672,-0.118 -2.3506,-0.1783 -3.5491,-0.1783 -19.2559,0 -34.8659,15.6101 -34.8659,34.8659 0,19.2565 15.61,34.8665 34.8659,34.8665 1.0548,0 2.0979,-0.0497 3.1287,-0.1414 4.7141,8.7254 13.9415,14.6542 24.5552,14.6542 15.4049,0 27.893,-12.4886 27.893,-27.893 0,-8.4823 -3.7911,-16.074 -9.7652,-21.19 6.0959,-5.1165 9.9743,-12.7894 9.9743,-21.3706 0,-15.4049 -12.4881,-27.893 -27.893,-27.893 -10.46,0 -19.57,5.7605 -24.3439,14.2797"
               style="fill:#0038ff;fill-opacity:1;fill-rule:nonzero;stroke:none"
               id="path36"
               inkscape:connector-curvature="0" /><path
               d="m 289.9352,418.6037 0,4.4396 c -0.2672,-0.0504 -0.5411,-0.0794 -0.8229,-0.0794 -2.4529,0 -4.4407,1.9883 -4.4407,4.4407 0,2.4529 1.9878,4.4412 4.4407,4.4412 0.2818,0 0.5557,-0.029 0.8229,-0.0793 l 0,17.6353 0.0436,1.5115 c -0.0347,0.2409 -0.2885,1.445 -1.8587,1.445 -9.6964,0 -17.2921,-7.7896 -17.2921,-17.7337 0,-9.944 7.4984,-17.7331 17.0707,-17.7331 1.9381,0 2.0365,1.426 2.0365,1.7122"
               style="fill:#0038ff;fill-opacity:1;fill-rule:nonzero;stroke:none"
               id="path38"
               inkscape:connector-curvature="0" /><path
               d="m 289.9352,371.6477 0,4.4396 c -0.2672,-0.0503 -0.5411,-0.0794 -0.8229,-0.0794 -2.4529,0 -4.4407,1.9884 -4.4407,4.4407 0,2.4529 1.9878,4.4413 4.4407,4.4413 0.2818,0 0.5557,-0.0291 0.8229,-0.0794 l 0,17.6353 0.0436,1.5116 c -0.0347,0.2409 -0.2885,1.445 -1.8587,1.445 -9.6964,0 -17.2921,-7.7897 -17.2921,-17.7337 0,-9.9441 7.4984,-17.7332 17.0707,-17.7332 1.9381,0 2.0365,1.426 2.0365,1.7122"
               style="fill:#0038ff;fill-opacity:1;fill-rule:nonzero;stroke:none"
               id="path40"
               inkscape:connector-curvature="0" /></g></g></g></g></g></svg>