<?xml version="1.0" encoding="UTF-8" standalone="no"?>
<!-- Created with Inkscape (http://www.inkscape.org/) -->

<svg xmlns:dc="http://purl.org/dc/elements/1.1/" xmlns:cc="http://creativecommons.org/ns#" xmlns:rdf="http://www.w3.org/1999/02/22-rdf-syntax-ns#" xmlns:svg="http://www.w3.org/2000/svg" xmlns="http://www.w3.org/2000/svg" xmlns:sodipodi="http://sodipodi.sourceforge.net/DTD/sodipodi-0.dtd" xmlns:inkscape="http://www.inkscape.org/namespaces/inkscape" version="1.1" id="svg3767" xml:space="preserve" width="388.73599" height="328.44" viewBox="0 0 388.73601 328.44001" sodipodi:docname="faces_DG_white_mouth.svg" inkscape:version="0.92.1 r">
  <metadata id="metadata3773">
    <rdf:RDF>
      <cc:Work rdf:about="">
        <dc:format>image/svg+xml</dc:format>
        <dc:type rdf:resource="http://purl.org/dc/dcmitype/StillImage" />
        <dc:title></dc:title>
      </cc:Work>
    </rdf:RDF>
  </metadata>
  <defs id="defs3771">
    <clipPath clipPathUnits="userSpaceOnUse" id="clipPath3783">
      <path d="M 0,1000 H 1000 V 0 H 0 Z" id="path3781" inkscape:connector-curvature="0" />
    </clipPath>
  </defs>
  <sodipodi:namedview pagecolor="#ffffff" bordercolor="#666666" borderopacity="1" objecttolerance="10" gridtolerance="10" guidetolerance="10" inkscape:pageopacity="0" inkscape:pageshadow="2" inkscape:window-width="640" inkscape:window-height="480" id="namedview3769" showgrid="false" inkscape:zoom="0.17700001" inkscape:cx="193.33277" inkscape:cy="188.74935" inkscape:window-x="280" inkscape:window-y="95" inkscape:window-maximized="0" inkscape:current-layer="g3775" />
  <g id="g3775" inkscape:groupmode="layer" inkscape:label="faces_DG_white_mouth" transform="matrix(1.3333333,0,0,-1.3333333,-473.33385,806.35731)">
    <g id="g3777">
      <g id="g3779" clip-path="url(#clipPath3783)">
        <g id="g3785" transform="translate(598.7444,533.74)">
          <path d="m 0,0 c -20.158,32.088 -55.847,53.573 -96.637,54.112 -0.005,4.837 1.279,11.163 6.787,16.916 -50.163,-10.187 -85.474,-46.142 -85.474,-46.142 -8.498,-7.551 -15.868,-16.326 -21.816,-26.053 -26.021,-1.684 -46.604,-23.142 -46.604,-49.381 0,-22.644 15.332,-41.722 36.255,-47.612 15.685,-44.901 58.686,-77.142 109.285,-77.142 51.001,0 94.287,32.754 109.657,78.214 20.974,5.857 36.355,24.96 36.355,47.64 C 47.808,-22.805 26.588,-1.088 0,0 m -36.151,-93.75 c 0.211,-2.071 0.319,-4.172 0.319,-6.298 0,-34.173 -27.925,-61.876 -62.372,-61.876 -34.448,0 -62.373,27.703 -62.373,61.876 0,1.871 0.089,3.722 0.253,5.551 -15.609,8.367 -26.215,24.743 -26.215,43.578 0,27.338 22.34,49.5 49.898,49.5 15.174,0 28.755,-6.727 37.907,-17.329 9.153,10.818 22.879,17.7 38.23,17.7 27.558,0 49.898,-22.162 49.898,-49.5 0,-18.563 -10.305,-34.73 -25.545,-43.202" style="fill:#414141;fill-opacity:1;fill-rule:nonzero;stroke:none" id="path3787" inkscape:connector-curvature="0" />
        </g>
        <g id="g3789" transform="translate(539.4904,417.9312)">
          <path d="m 0,0 c -3.057,0.684 -6.097,-1.22 -6.788,-4.254 -2.203,-9.687 -11.943,-15.788 -21.707,-13.605 -3.059,0.684 -6.097,-1.22 -6.788,-4.254 -0.69,-3.034 1.23,-6.049 4.288,-6.733 2.179,-0.489 4.355,-0.722 6.5,-0.722 13.485,0 25.693,9.249 28.784,22.835 C 4.979,-3.7 3.058,-0.685 0,0" style="fill:#ffffff;fill-opacity:1;fill-rule:nonzero;stroke:none" id="path3791" inkscape:connector-curvature="0" />
        </g>
        <g id="g3793" transform="translate(462.1036,514.3452)">
          <path d="m 0,0 c -17.55,0 -31.778,-14.114 -31.778,-31.525 0,-17.41 14.228,-31.524 31.778,-31.524 17.55,0 31.778,14.114 31.778,31.524 C 31.778,-14.114 17.55,0 0,0 m 10.417,-26.659 c -4.388,0 -7.945,3.528 -7.945,7.881 0,4.353 3.557,7.881 7.945,7.881 4.387,0 7.944,-3.528 7.944,-7.881 0,-4.353 -3.557,-7.881 -7.944,-7.881" style="fill:#414141;fill-opacity:1;fill-rule:nonzero;stroke:none" id="path3795" inkscape:connector-curvature="0" />
        </g>
        <g id="g3797" transform="translate(538.2407,514.7165)">
          <path d="m 0,0 c -17.55,0 -31.778,-14.114 -31.778,-31.525 0,-17.41 14.228,-31.524 31.778,-31.524 17.55,0 31.778,14.114 31.778,31.524 C 31.778,-14.114 17.55,0 0,0 m 12.334,-27.031 c -4.388,0 -7.945,3.529 -7.945,7.882 0,4.352 3.557,7.881 7.945,7.881 4.387,0 7.944,-3.529 7.944,-7.881 0,-4.353 -3.557,-7.882 -7.944,-7.882" style="fill:#414141;fill-opacity:1;fill-rule:nonzero;stroke:none" id="path3799" inkscape:connector-curvature="0" />
        </g>
      </g>
    </g>
  </g>
</svg>
