<svg version="1" fill="currentColor" xmlns="http://www.w3.org/2000/svg" width="1037.333" height="1037.333" viewBox="0 0 778.000000 778.000000">
  <path d="M392.5 64.6c-49.1 12.9-93.4 33-139.3 63-30.7 20.1-53.5 38.7-80.8 65.9-19.8 19.6-30.3 32.1-41.8 49.3l-6.7 10.1-5.7.6c-31.4 3.8-59.8 17.8-81.6 40.5C18.2 313.2 7.3 334 2 360c-2.5 12.2-2.7 35.5-.5 48.2 8 46 42.8 86.9 86.8 101.8l7.9 2.7 4.3 10.9c15.6 40 39.4 75.4 71.6 107 47.4 46.3 104.5 74.4 172.9 85.1 9.4 1.5 17.5 1.8 44 1.8 28.8-.1 34-.3 46-2.3 55.6-9.2 104.3-30.5 147-64.3 13-10.3 38.1-35.2 48.1-47.9 20.4-25.6 36.4-53.4 47.2-81.9l4.2-11.2 7.5-2.5c18.2-6.2 40.4-20.5 53.5-34.6 17.5-18.8 29.8-43.3 34-67.6 2-11.4 2-35.6-.1-46.3-4.8-25.7-16.4-48.3-34.3-67.2-11.3-11.8-23.1-20.5-37.6-27.7-14-7-25.5-10.5-41.8-12.9l-11.8-1.7-8.6-11.9c-11.4-16.1-17.7-23.7-30.7-37.2-53.8-56-128.6-90.4-204.4-94-10-.5-13.5-1-13.9-2-1-2.4 2.5-18 5.4-24.5 1.5-3.5 4.9-9.1 7.5-12.6l4.7-6.2-2.7.1c-1.5 0-8.5 1.6-15.7 3.5zm123.2 191.9c26.3 5.8 48.9 18 67.3 36.5 46.3 46.2 51.4 118 12.2 170.7-7.3 9.7-21.7 23.5-31.5 30.1-4.2 2.7-8 5.1-8.6 5.3-.6.3-1.2 7.8-1.5 20.4-.3 15.5-.9 22.2-2.6 30-10.8 50.2-41.9 90.9-87 113.9-43.8 22.4-94.3 24.3-140.3 5.2-42.6-17.6-77.8-55.2-92.2-98.1-6-17.7-7.6-27.6-8.2-48.7l-.6-19.8-7.5-4.6c-32-20-53.9-52.8-60.4-90.4-2-11.9-1.5-34.6 1.1-46.7 9.8-46.7 43.4-84.1 88.5-98.8 15.9-5.1 22.2-6 42.1-5.9 15.8 0 19.4.3 29.1 2.6 24.7 5.8 46.4 17.8 64.2 35.6l7.3 7.2 5.1-5.5c18.5-20.3 46.8-35.2 75.8-40 10.9-1.8 37.5-1.3 47.7 1z" />
  <path d="M467.4 303.4c-15.1 4-28.1 11.5-39.3 22.9-10 10.2-16.7 21.3-21.1 35.2-3.1 9.9-3.9 29-1.6 40.6 6.3 31.2 30.4 56.5 62.1 65.1 11.4 3 31.6 3 43 0 28.2-7.7 50-28.1 59.7-56.2 3.1-9.1 3.3-10.1 3.3-25 0-17.5-1.2-23.4-7.1-35.9-8.6-18.4-23.6-33.2-41.9-41.7-16.8-7.8-38.8-9.7-57.1-5zm63.2 30.5c14.7 6.7 15.7 27.6 1.7 35.8-10 5.8-23.3 2.2-28.3-7.7-4.2-8.2-3.4-16.2 2.3-22.7 6.1-7 16-9.2 24.3-5.4zM268 303.4c-13.3 3-25.5 8.9-36.1 17.5-20.5 16.5-31.3 39.4-31.1 66.1.3 59.2 60.4 99.5 116.2 78 24.4-9.5 43.8-30.8 51-56.2 2.7-9.2 3.6-25.8 2.1-35.6-5.2-33.3-30.6-60.7-64-69.1-9.7-2.4-28.7-2.8-38.1-.7zm55.1 30.9c11.7 6.2 14.4 21.4 5.6 31.3-7.5 8.6-19.7 9.4-28.6 1.8-14.1-12.2-5.4-35.4 13.4-35.4 3.5 0 6.6.8 9.6 2.3zM484.3 559.1c-5.2 1.5-8.9 6.2-11.4 14.1-4.3 13.6-12.7 23.3-25.4 29.4-8.6 4.2-17 5.4-28.7 4.1-10.1-1.1-14.1.2-18.4 5.8-3.6 4.8-4 12.9-.8 17.2 5 6.8 12 8.9 28.9 8.7 19.9-.2 37.5-7.3 52.6-21.2 16.8-15.5 27.4-40.8 21.4-51-3.6-6-11.5-9.1-18.2-7.1z" />
</svg>
